<svg version="1.0" xmlns="http://www.w3.org/2000/svg" xmlns:xlink="http://www.w3.org/1999/xlink" x="0px" y="0px"
	 width="1089.1px" height="618px" viewBox="0 0 1089.1 618" style="enable-background:new 0 0 1089.1 618;" xml:space="preserve">
<g id="Layer_1" style="display:none;">
	<path style="display:inline;fill:#E74C3C;stroke:#C0392B;stroke-width:8.5039;" d="M546.3,470.7c-0.5-0.8-1.7-0.7-2.2,0.1
		L418.1,698h-246l245.3-456.8c0.3-0.6,1.1-0.6,1.4-0.1l126,187c0.6,0.9,2,1,2.7,0.1"/>
	<path style="display:inline;fill:#E74C3C;stroke:#C0392B;stroke-width:8.5039;" d="M544.4,470.7c0.5-0.8,1.7-0.7,2.2,0.1l126,227.2
		h246L674.4,243.4c-0.8-1.5-3-1.6-4-0.2L547.8,428.1c-0.6,0.9-2,1-2.7,0.1"/>
	<polygon style="display:inline;fill:#FFFFFF;" points="179.2,693.8 232.2,693.8 448.4,292.5 418.5,248.4 	"/>
	<polygon style="display:inline;fill:#FFFFFF;" points="913.7,693.8 860.7,693.8 644.6,292.5 674.5,248.4 	"/>
</g>
<g id="Layer_2">
	<path style="opacity:0.52;fill:#CC0E00;" d="M899.8,585.5h160.1c2.7,0,4.2-6.9,2.3-11.2l-20.2-46.3c-0.6-1.4-1.4-2.1-2.3-2.1H878.4
		c-1.5,0-2.8,2.3-3.1,5.5l-4,46.3c-0.4,4.1,1.1,7.9,3.1,7.9H899.8z"/>
	<rect x="479.8" y="361.8" style="display:none;" width="0.2" height="45.8"/>
	<g id="EdxG2X_1_">
		<g>
			<path style="fill:#1E1E1E;" d="M93.1,506.1c60.5-149.4,120.6-298.9,180.8-448.4c1.6-3.9,2.9-8.6,4.9-11.6
				c5.4-7.8,15.1-16.1,22.6-15.9c7.5,0.1,18.5,8.9,21.8,16.6c18.6,42.8,35.3,86.4,52.7,129.7c16,39.8,32.1,79.6,48.1,119.3
				c2.3,0,2.4,0,4.6,0c17.7-43.6,35.3-87.2,53-130.9c15.7-38.8,31.4-77.5,46.8-116.4c4.3-10.9,9.5-19.6,22.9-19.8
				c14.2-0.2,19.8,8.9,24.4,20.4c60.2,150.1,121,300.1,180.6,450.4c6.8,17.1,15,24.2,33,21.8c10.7-1.4,21.6-0.3,35.4-0.3
				c-3.5-9.7-5.9-16.9-8.8-24C762.6,364.4,709.3,231.7,655.9,99c-5.8-14.4,6-56.5,18.4-66c12.7-9.6,29.1-4.2,36.1,13.1
				c20.7,50.4,41,101,61.4,151.6c48.1,119.5,94.1,234.2,142,353.5c1.9,4.6,4,9.1,6.4,13.5c3.3,6,8.2,15,10.3,20.3
				c0.1,0.2-0.1,0.5-0.3,0.5c-6.9,0.6-15.6,0.1-20.5,0.1c-59.5,0.1-119-0.4-178.5,0.4c-13.5,0.2-18.8-5-23.4-16.7
				c-49.4-123.8-99.2-247.4-149-371.1c-1.7-4.2-3.9-8.2-7.7-16.2c-39.9,99-78.5,194.8-118.9,294.9c-2.1,5.3-9.6,5.3-11.7,0
				c-40.3-100-79-196.1-119.5-296.6c-55.1,137-108.5,269.6-161.8,402.2c-0.6,1.6-2.2,2.6-3.9,2.6H57.6c-1.1,0-1.8-1.1-1.3-2.1
				l16.8-32.9" />
			<path d="M35.1,502"/>
			<path style="opacity:0.52;fill:#CC0E00;" d="M510.9,468.4c-39.4-99.2-41.7-133.2-83.5-237.1c-41.4,102.7-54.2,137-93.6,235.1
				c-1.3,3.1-5.7,3.1-7,0c-11.9-29.5-22.7-55.7-32.7-82.3c-1.6-4.2,0.7-10.6,2.6-15.4c43.3-108,58.7-148.6,102-256.6
				c5.4-13.5,12.6-23.1,28.8-23c16.1,0.1,23.3,9.5,28.7,23.1c43,107.4,47.4,147.4,90.3,254.9c2.5,6.2,4.1,14.6,2,20.5
				c-9.4,25.9-20.1,51.3-32.1,80.8C515.3,470.8,511.9,470.8,510.9,468.4z">
								<animateTransform id="anskljdf" 
					attributeName="transform" 
					attributeType="XML" 
					type="translate" 
					dur="1s" 
					values="0,15;0,-15;0,15" 
					repeatCount="indefinite"/> 
				</path>
		</g>
	</g>
	<circle style="display:none;fill:#CC0E00;" cx="451.8" cy="196.3" r="14.9"/>
</g>
</svg>
